<?xml version="1.0" encoding="UTF-8" standalone="no"?>
<!DOCTYPE svg PUBLIC "-//W3C//DTD SVG 1.1//EN"
 "http://www.w3.org/Graphics/SVG/1.1/DTD/svg11.dtd">
<!-- Generated by graphviz version 2.40.1 (20161225.0304)
 -->
<!-- Title: dependencies Pages: 1 -->
<svg width="652pt" height="284pt"
 viewBox="0.00 0.00 652.00 284.00" xmlns="http://www.w3.org/2000/svg" xmlns:xlink="http://www.w3.org/1999/xlink">
<g id="graph0" class="graph" transform="scale(1 1) rotate(0) translate(4 280)">
<title>dependencies</title>
<polygon fill="#ffffff" stroke="transparent" points="-4,4 -4,-280 648,-280 648,4 -4,4"/>
<text text-anchor="start" x="301.0091" y="-42.4" font-family="sans-serif" font-weight="bold" font-size="14.00" fill="#000000">Legend</text>
<polygon fill="#ffffb3" stroke="transparent" points="88,-10 88,-30 108,-30 108,-10 88,-10"/>
<text text-anchor="start" x="111.629" y="-15.4" font-family="sans-serif" font-size="14.00" fill="#000000"> &#160;Declarations</text>
<polygon fill="#8dd3c7" stroke="transparent" points="201,-10 201,-30 221,-30 221,-10 201,-10"/>
<text text-anchor="start" x="224.7251" y="-15.4" font-family="sans-serif" font-size="14.00" fill="#000000"> &#160;Module</text>
<polygon fill="#80b1d3" stroke="transparent" points="287,-10 287,-30 307,-30 307,-10 287,-10"/>
<text text-anchor="start" x="310.7812" y="-15.4" font-family="sans-serif" font-size="14.00" fill="#000000"> &#160;Bootstrap</text>
<polygon fill="#fdb462" stroke="transparent" points="384,-10 384,-30 404,-30 404,-10 384,-10"/>
<text text-anchor="start" x="407.6732" y="-15.4" font-family="sans-serif" font-size="14.00" fill="#000000"> &#160;Providers</text>
<polygon fill="#fb8072" stroke="transparent" points="480,-10 480,-30 500,-30 500,-10 480,-10"/>
<text text-anchor="start" x="503.7258" y="-15.4" font-family="sans-serif" font-size="14.00" fill="#000000"> &#160;Exports</text>
<g id="clust1" class="cluster">
<title>cluster_UserInterfaceModule</title>
<polygon fill="none" stroke="#000000" stroke-dasharray="1,5" points="8,-70 8,-268 636,-268 636,-70 8,-70"/>
</g>
<g id="clust2" class="cluster">
<title>cluster_UserInterfaceModule_declarations</title>
<polygon fill="none" stroke="#000000" points="16,-78 16,-130 628,-130 628,-78 16,-78"/>
</g>
<g id="clust8" class="cluster">
<title>cluster_UserInterfaceModule_exports</title>
<polygon fill="none" stroke="#000000" points="259,-208 259,-260 435,-260 435,-208 259,-208"/>
</g>
<!-- FooterComponent -->
<g id="node1" class="node">
<title>FooterComponent</title>
<polygon fill="#ffffb3" stroke="#000000" points="619.8809,-122 502.1191,-122 502.1191,-86 619.8809,-86 619.8809,-122"/>
<text text-anchor="middle" x="561" y="-99.8" font-family="Times,serif" font-size="14.00" fill="#000000">FooterComponent</text>
</g>
<!-- UserInterfaceModule -->
<g id="node5" class="node">
<title>UserInterfaceModule</title>
<polygon fill="#8dd3c7" stroke="#000000" points="414.7073,-187 411.7073,-191 390.7073,-191 387.7073,-187 279.2927,-187 279.2927,-151 414.7073,-151 414.7073,-187"/>
<text text-anchor="middle" x="347" y="-164.8" font-family="Times,serif" font-size="14.00" fill="#000000">UserInterfaceModule</text>
</g>
<!-- FooterComponent&#45;&gt;UserInterfaceModule -->
<g id="edge1" class="edge">
<title>FooterComponent&#45;&gt;UserInterfaceModule</title>
<path fill="none" stroke="#000000" d="M561,-122.1061C561,-141.3391 561,-169 561,-169 561,-169 424.7109,-169 424.7109,-169"/>
<polygon fill="#000000" stroke="#000000" points="424.711,-165.5001 414.7109,-169 424.7109,-172.5001 424.711,-165.5001"/>
</g>
<!-- HeaderComponent -->
<g id="node2" class="node">
<title>HeaderComponent</title>
<polygon fill="#ffffb3" stroke="#000000" points="483.7437,-122 362.2563,-122 362.2563,-86 483.7437,-86 483.7437,-122"/>
<text text-anchor="middle" x="423" y="-99.8" font-family="Times,serif" font-size="14.00" fill="#000000">HeaderComponent</text>
</g>
<!-- HeaderComponent&#45;&gt;UserInterfaceModule -->
<g id="edge2" class="edge">
<title>HeaderComponent&#45;&gt;UserInterfaceModule</title>
<path fill="none" stroke="#000000" d="M388.4909,-122.1061C388.4909,-122.1061 388.4909,-140.991 388.4909,-140.991"/>
<polygon fill="#000000" stroke="#000000" points="384.991,-140.9909 388.4909,-150.991 391.991,-140.991 384.991,-140.9909"/>
</g>
<!-- NavigationComponent -->
<g id="node3" class="node">
<title>NavigationComponent</title>
<polygon fill="#ffffb3" stroke="#000000" points="343.5407,-122 200.4593,-122 200.4593,-86 343.5407,-86 343.5407,-122"/>
<text text-anchor="middle" x="272" y="-99.8" font-family="Times,serif" font-size="14.00" fill="#000000">NavigationComponent</text>
</g>
<!-- NavigationComponent&#45;&gt;UserInterfaceModule -->
<g id="edge3" class="edge">
<title>NavigationComponent&#45;&gt;UserInterfaceModule</title>
<path fill="none" stroke="#000000" d="M311.4583,-122.1061C311.4583,-122.1061 311.4583,-140.991 311.4583,-140.991"/>
<polygon fill="#000000" stroke="#000000" points="307.9583,-140.9909 311.4583,-150.991 314.9583,-140.991 307.9583,-140.9909"/>
</g>
<!-- UserInterfaceComponent -->
<g id="node4" class="node">
<title>UserInterfaceComponent</title>
<polygon fill="#ffffb3" stroke="#000000" points="181.9904,-122 24.0096,-122 24.0096,-86 181.9904,-86 181.9904,-122"/>
<text text-anchor="middle" x="103" y="-99.8" font-family="Times,serif" font-size="14.00" fill="#000000">UserInterfaceComponent</text>
</g>
<!-- UserInterfaceComponent&#45;&gt;UserInterfaceModule -->
<g id="edge4" class="edge">
<title>UserInterfaceComponent&#45;&gt;UserInterfaceModule</title>
<path fill="none" stroke="#000000" d="M103,-122.1061C103,-141.3391 103,-169 103,-169 103,-169 269.0324,-169 269.0324,-169"/>
<polygon fill="#000000" stroke="#000000" points="269.0324,-172.5001 279.0324,-169 269.0324,-165.5001 269.0324,-172.5001"/>
</g>
<!-- UserInterfaceComponent  -->
<g id="node6" class="node">
<title>UserInterfaceComponent </title>
<polygon fill="#fb8072" stroke="#000000" points="427.4896,-252 266.5104,-252 266.5104,-216 427.4896,-216 427.4896,-252"/>
<text text-anchor="middle" x="347" y="-229.8" font-family="Times,serif" font-size="14.00" fill="#000000">UserInterfaceComponent </text>
</g>
<!-- UserInterfaceModule&#45;&gt;UserInterfaceComponent  -->
<g id="edge5" class="edge">
<title>UserInterfaceModule&#45;&gt;UserInterfaceComponent </title>
<path fill="none" stroke="#000000" stroke-dasharray="5,2" d="M347,-187.1061C347,-187.1061 347,-205.991 347,-205.991"/>
<polygon fill="#000000" stroke="#000000" points="343.5001,-205.9909 347,-215.991 350.5001,-205.991 343.5001,-205.9909"/>
</g>
</g>
</svg>
