<?xml version="1.0" encoding="UTF-8" standalone="no"?>
<!DOCTYPE svg PUBLIC "-//W3C//DTD SVG 1.1//EN"
 "http://www.w3.org/Graphics/SVG/1.1/DTD/svg11.dtd">
<!-- Generated by graphviz version 2.40.1 (20161225.0304)
 -->
<!-- Title: dependencies Pages: 1 -->
<svg width="1970pt" height="360pt"
 viewBox="0.00 0.00 1970.00 360.00" xmlns="http://www.w3.org/2000/svg" xmlns:xlink="http://www.w3.org/1999/xlink">
<g id="graph0" class="graph" transform="scale(1 1) rotate(0) translate(4 356)">
<title>dependencies</title>
<polygon fill="#ffffff" stroke="transparent" points="-4,4 -4,-356 1966,-356 1966,4 -4,4"/>
<text text-anchor="start" x="960.0091" y="-42.4" font-family="sans-serif" font-weight="bold" font-size="14.00" fill="#000000">Legend</text>
<polygon fill="#ffffb3" stroke="transparent" points="747,-10 747,-30 767,-30 767,-10 747,-10"/>
<text text-anchor="start" x="770.629" y="-15.4" font-family="sans-serif" font-size="14.00" fill="#000000"> &#160;Declarations</text>
<polygon fill="#8dd3c7" stroke="transparent" points="860,-10 860,-30 880,-30 880,-10 860,-10"/>
<text text-anchor="start" x="883.7251" y="-15.4" font-family="sans-serif" font-size="14.00" fill="#000000"> &#160;Module</text>
<polygon fill="#80b1d3" stroke="transparent" points="946,-10 946,-30 966,-30 966,-10 946,-10"/>
<text text-anchor="start" x="969.7812" y="-15.4" font-family="sans-serif" font-size="14.00" fill="#000000"> &#160;Bootstrap</text>
<polygon fill="#fdb462" stroke="transparent" points="1043,-10 1043,-30 1063,-30 1063,-10 1043,-10"/>
<text text-anchor="start" x="1066.6732" y="-15.4" font-family="sans-serif" font-size="14.00" fill="#000000"> &#160;Providers</text>
<polygon fill="#fb8072" stroke="transparent" points="1139,-10 1139,-30 1159,-30 1159,-10 1139,-10"/>
<text text-anchor="start" x="1162.7258" y="-15.4" font-family="sans-serif" font-size="14.00" fill="#000000"> &#160;Exports</text>
<g id="clust1" class="cluster">
<title>cluster_AppModule</title>
<polygon fill="none" stroke="#000000" stroke-dasharray="1,5" points="661,-146 661,-344 1377,-344 1377,-146 661,-146"/>
</g>
<g id="clust2" class="cluster">
<title>cluster_AppModule_declarations</title>
<polygon fill="none" stroke="#000000" points="1247,-154 1247,-206 1369,-206 1369,-154 1247,-154"/>
</g>
<g id="clust4" class="cluster">
<title>cluster_AppModule_imports</title>
<polygon fill="none" stroke="#000000" points="669,-154 669,-206 1239,-206 1239,-154 669,-154"/>
</g>
<g id="clust6" class="cluster">
<title>cluster_AppModule_bootstrap</title>
<polygon fill="none" stroke="#000000" points="951,-284 951,-336 1075,-336 1075,-284 951,-284"/>
</g>
<g id="clust14" class="cluster">
<title>cluster_LoginModule</title>
<polygon fill="none" stroke="#000000" stroke-dasharray="1,5" points="828,-70 828,-138 1136,-138 1136,-70 828,-70"/>
</g>
<g id="clust15" class="cluster">
<title>cluster_LoginModule_declarations</title>
<polygon fill="none" stroke="#000000" points="998,-78 998,-130 1128,-130 1128,-78 998,-78"/>
</g>
<g id="clust17" class="cluster">
<title>cluster_LoginModule_imports</title>
<polygon fill="none" stroke="#000000" points="836,-78 836,-130 990,-130 990,-78 836,-78"/>
</g>
<g id="clust27" class="cluster">
<title>cluster_PageNotFoundModule</title>
<polygon fill="none" stroke="#000000" stroke-dasharray="1,5" points="1144,-70 1144,-138 1554,-138 1554,-70 1144,-70"/>
</g>
<g id="clust28" class="cluster">
<title>cluster_PageNotFoundModule_declarations</title>
<polygon fill="none" stroke="#000000" points="1364,-78 1364,-130 1546,-130 1546,-78 1364,-78"/>
</g>
<g id="clust30" class="cluster">
<title>cluster_PageNotFoundModule_imports</title>
<polygon fill="none" stroke="#000000" points="1152,-78 1152,-130 1356,-130 1356,-78 1152,-78"/>
</g>
<g id="clust40" class="cluster">
<title>cluster_PrestationsModule</title>
<polygon fill="none" stroke="#000000" stroke-dasharray="1,5" points="1562,-70 1562,-206 1954,-206 1954,-70 1562,-70"/>
</g>
<g id="clust41" class="cluster">
<title>cluster_PrestationsModule_declarations</title>
<polygon fill="none" stroke="#000000" points="1760,-78 1760,-130 1946,-130 1946,-78 1760,-78"/>
</g>
<g id="clust43" class="cluster">
<title>cluster_PrestationsModule_imports</title>
<polygon fill="none" stroke="#000000" points="1570,-78 1570,-130 1752,-130 1752,-78 1570,-78"/>
</g>
<g id="clust53" class="cluster">
<title>cluster_UserInterfaceModule</title>
<polygon fill="none" stroke="#000000" stroke-dasharray="1,5" points="8,-70 8,-138 820,-138 820,-70 8,-70"/>
</g>
<g id="clust54" class="cluster">
<title>cluster_UserInterfaceModule_declarations</title>
<polygon fill="none" stroke="#000000" points="200,-78 200,-130 812,-130 812,-78 200,-78"/>
</g>
<g id="clust60" class="cluster">
<title>cluster_UserInterfaceModule_exports</title>
<polygon fill="none" stroke="#000000" points="16,-78 16,-130 192,-130 192,-78 16,-78"/>
</g>
<!-- AppComponent -->
<g id="node1" class="node">
<title>AppComponent</title>
<polygon fill="#ffffb3" stroke="#000000" points="1360.9399,-198 1255.0601,-198 1255.0601,-162 1360.9399,-162 1360.9399,-198"/>
<text text-anchor="middle" x="1308" y="-175.8" font-family="Times,serif" font-size="14.00" fill="#000000">AppComponent</text>
</g>
<!-- AppModule -->
<g id="node2" class="node">
<title>AppModule</title>
<polygon fill="#8dd3c7" stroke="#000000" points="1054.6571,-263 1051.6571,-267 1030.6571,-267 1027.6571,-263 971.3429,-263 971.3429,-227 1054.6571,-227 1054.6571,-263"/>
<text text-anchor="middle" x="1013" y="-240.8" font-family="Times,serif" font-size="14.00" fill="#000000">AppModule</text>
</g>
<!-- AppComponent&#45;&gt;AppModule -->
<g id="edge1" class="edge">
<title>AppComponent&#45;&gt;AppModule</title>
<path fill="none" stroke="#000000" d="M1308,-198.2843C1308,-219.3211 1308,-251 1308,-251 1308,-251 1064.953,-251 1064.953,-251"/>
<polygon fill="#000000" stroke="#000000" points="1064.9531,-247.5001 1054.953,-251 1064.953,-254.5001 1064.9531,-247.5001"/>
</g>
<!-- AppComponent  -->
<g id="node7" class="node">
<title>AppComponent </title>
<polygon fill="#80b1d3" stroke="#000000" points="1067.439,-328 958.561,-328 958.561,-292 1067.439,-292 1067.439,-328"/>
<text text-anchor="middle" x="1013" y="-305.8" font-family="Times,serif" font-size="14.00" fill="#000000">AppComponent </text>
</g>
<!-- AppModule&#45;&gt;AppComponent  -->
<g id="edge6" class="edge">
<title>AppModule&#45;&gt;AppComponent </title>
<path fill="none" stroke="#000000" stroke-dasharray="1,5" d="M1013,-263.1061C1013,-263.1061 1013,-281.991 1013,-281.991"/>
<polygon fill="#000000" stroke="#000000" points="1009.5001,-281.9909 1013,-291.991 1016.5001,-281.991 1009.5001,-281.9909"/>
</g>
<!-- AppRoutingModule -->
<g id="node3" class="node">
<title>AppRoutingModule</title>
<polygon fill="#8dd3c7" stroke="#000000" points="1231.2744,-198 1228.2744,-202 1207.2744,-202 1204.2744,-198 1102.7256,-198 1102.7256,-162 1231.2744,-162 1231.2744,-198"/>
<text text-anchor="middle" x="1167" y="-175.8" font-family="Times,serif" font-size="14.00" fill="#000000">AppRoutingModule</text>
</g>
<!-- AppRoutingModule&#45;&gt;AppModule -->
<g id="edge2" class="edge">
<title>AppRoutingModule&#45;&gt;AppModule</title>
<path fill="none" stroke="#000000" d="M1167,-198.0225C1167,-215.3734 1167,-239 1167,-239 1167,-239 1064.6746,-239 1064.6746,-239"/>
<polygon fill="#000000" stroke="#000000" points="1064.6747,-235.5001 1054.6746,-239 1064.6746,-242.5001 1064.6747,-235.5001"/>
</g>
<!-- LoginModule -->
<g id="node4" class="node">
<title>LoginModule</title>
<polygon fill="#8dd3c7" stroke="#000000" points="923.493,-198 920.493,-202 899.493,-202 896.493,-198 830.507,-198 830.507,-162 923.493,-162 923.493,-198"/>
<text text-anchor="middle" x="877" y="-175.8" font-family="Times,serif" font-size="14.00" fill="#000000">LoginModule</text>
</g>
<!-- LoginModule&#45;&gt;AppModule -->
<g id="edge3" class="edge">
<title>LoginModule&#45;&gt;AppModule</title>
<path fill="none" stroke="#000000" d="M877,-198.0225C877,-215.3734 877,-239 877,-239 877,-239 961.0858,-239 961.0858,-239"/>
<polygon fill="#000000" stroke="#000000" points="961.0858,-242.5001 971.0858,-239 961.0858,-235.5001 961.0858,-242.5001"/>
</g>
<!-- PageNotFoundModule -->
<g id="node5" class="node">
<title>PageNotFoundModule</title>
<polygon fill="#8dd3c7" stroke="#000000" points="1084.5421,-198 1081.5421,-202 1060.5421,-202 1057.5421,-198 941.4579,-198 941.4579,-162 1084.5421,-162 1084.5421,-198"/>
<text text-anchor="middle" x="1013" y="-175.8" font-family="Times,serif" font-size="14.00" fill="#000000">PageNotFoundModule</text>
</g>
<!-- PageNotFoundModule&#45;&gt;AppModule -->
<g id="edge4" class="edge">
<title>PageNotFoundModule&#45;&gt;AppModule</title>
<path fill="none" stroke="#000000" d="M1013,-198.1061C1013,-198.1061 1013,-216.991 1013,-216.991"/>
<polygon fill="#000000" stroke="#000000" points="1009.5001,-216.9909 1013,-226.991 1016.5001,-216.991 1009.5001,-216.9909"/>
</g>
<!-- UserInterfaceModule -->
<g id="node6" class="node">
<title>UserInterfaceModule</title>
<polygon fill="#8dd3c7" stroke="#000000" points="812.7073,-198 809.7073,-202 788.7073,-202 785.7073,-198 677.2927,-198 677.2927,-162 812.7073,-162 812.7073,-198"/>
<text text-anchor="middle" x="745" y="-175.8" font-family="Times,serif" font-size="14.00" fill="#000000">UserInterfaceModule</text>
</g>
<!-- UserInterfaceModule&#45;&gt;AppModule -->
<g id="edge5" class="edge">
<title>UserInterfaceModule&#45;&gt;AppModule</title>
<path fill="none" stroke="#000000" d="M745,-198.2843C745,-219.3211 745,-251 745,-251 745,-251 961.125,-251 961.125,-251"/>
<polygon fill="#000000" stroke="#000000" points="961.125,-254.5001 971.125,-251 961.125,-247.5001 961.125,-254.5001"/>
</g>
<!-- UserInterfaceComponent  -->
<g id="node19" class="node">
<title>UserInterfaceComponent </title>
<polygon fill="#fb8072" stroke="#000000" points="184.4896,-122 23.5104,-122 23.5104,-86 184.4896,-86 184.4896,-122"/>
<text text-anchor="middle" x="104" y="-99.8" font-family="Times,serif" font-size="14.00" fill="#000000">UserInterfaceComponent </text>
</g>
<!-- UserInterfaceModule&#45;&gt;UserInterfaceComponent  -->
<g id="edge17" class="edge">
<title>UserInterfaceModule&#45;&gt;UserInterfaceComponent </title>
<path fill="none" stroke="#000000" stroke-dasharray="5,2" d="M677.0086,-189C512.0395,-189 104,-189 104,-189 104,-189 104,-132.0263 104,-132.0263"/>
<polygon fill="#000000" stroke="#000000" points="107.5001,-132.0263 104,-122.0263 100.5001,-132.0263 107.5001,-132.0263"/>
</g>
<!-- LoginComponent -->
<g id="node8" class="node">
<title>LoginComponent</title>
<polygon fill="#ffffb3" stroke="#000000" points="1120.2758,-122 1005.7242,-122 1005.7242,-86 1120.2758,-86 1120.2758,-122"/>
<text text-anchor="middle" x="1063" y="-99.8" font-family="Times,serif" font-size="14.00" fill="#000000">LoginComponent</text>
</g>
<!-- LoginComponent&#45;&gt;LoginModule -->
<g id="edge7" class="edge">
<title>LoginComponent&#45;&gt;LoginModule</title>
<path fill="none" stroke="#000000" d="M1025.4018,-122.207C1025.4018,-127.5549 1025.4018,-132 1025.4018,-132 1025.4018,-132 896.9792,-132 896.9792,-132 896.9792,-132 896.9792,-151.8533 896.9792,-151.8533"/>
<polygon fill="#000000" stroke="#000000" points="893.4793,-151.8532 896.9792,-161.8533 900.4793,-151.8533 893.4793,-151.8532"/>
</g>
<!-- LoginRoutingModule -->
<g id="node9" class="node">
<title>LoginRoutingModule</title>
<polygon fill="#8dd3c7" stroke="#000000" points="982.1108,-122 979.1108,-126 958.1108,-126 955.1108,-122 843.8892,-122 843.8892,-86 982.1108,-86 982.1108,-122"/>
<text text-anchor="middle" x="913" y="-99.8" font-family="Times,serif" font-size="14.00" fill="#000000">LoginRoutingModule</text>
</g>
<!-- LoginRoutingModule&#45;&gt;LoginModule -->
<g id="edge8" class="edge">
<title>LoginRoutingModule&#45;&gt;LoginModule</title>
<path fill="none" stroke="#000000" d="M870.4619,-122.0109C870.4619,-122.0109 870.4619,-151.855 870.4619,-151.855"/>
<polygon fill="#000000" stroke="#000000" points="866.962,-151.8549 870.4619,-161.855 873.962,-151.855 866.962,-151.8549"/>
</g>
<!-- PageNotFoundComponent -->
<g id="node10" class="node">
<title>PageNotFoundComponent</title>
<polygon fill="#ffffb3" stroke="#000000" points="1537.8243,-122 1372.1757,-122 1372.1757,-86 1537.8243,-86 1537.8243,-122"/>
<text text-anchor="middle" x="1455" y="-99.8" font-family="Times,serif" font-size="14.00" fill="#000000">PageNotFoundComponent</text>
</g>
<!-- PageNotFoundComponent&#45;&gt;PageNotFoundModule -->
<g id="edge9" class="edge">
<title>PageNotFoundComponent&#45;&gt;PageNotFoundModule</title>
<path fill="none" stroke="#000000" d="M1455,-122.1467C1455,-135.7395 1455,-152 1455,-152 1455,-152 1064.9811,-152 1064.9811,-152 1064.9811,-152 1064.9811,-152.9793 1064.9811,-152.9793"/>
<polygon fill="#000000" stroke="#000000" points="1061.4812,-151.793 1064.9811,-161.793 1068.4812,-151.7931 1061.4812,-151.793"/>
</g>
<!-- PageNotFoundRoutingModule -->
<g id="node11" class="node">
<title>PageNotFoundRoutingModule</title>
<polygon fill="#8dd3c7" stroke="#000000" points="1348.1595,-122 1345.1595,-126 1324.1595,-126 1321.1595,-122 1159.8405,-122 1159.8405,-86 1348.1595,-86 1348.1595,-122"/>
<text text-anchor="middle" x="1254" y="-99.8" font-family="Times,serif" font-size="14.00" fill="#000000">PageNotFoundRoutingModule</text>
</g>
<!-- PageNotFoundRoutingModule&#45;&gt;PageNotFoundModule -->
<g id="edge10" class="edge">
<title>PageNotFoundRoutingModule&#45;&gt;PageNotFoundModule</title>
<path fill="none" stroke="#000000" d="M1195.5288,-122.1097C1195.5288,-131.897 1195.5288,-142 1195.5288,-142 1195.5288,-142 1045.1915,-142 1045.1915,-142 1045.1915,-142 1045.1915,-151.8903 1045.1915,-151.8903"/>
<polygon fill="#000000" stroke="#000000" points="1041.6915,-151.8903 1045.1915,-161.8903 1048.6915,-151.8904 1041.6915,-151.8903"/>
</g>
<!-- ListePrestationsComponent -->
<g id="node12" class="node">
<title>ListePrestationsComponent</title>
<polygon fill="#ffffb3" stroke="#000000" points="1938.259,-122 1767.741,-122 1767.741,-86 1938.259,-86 1938.259,-122"/>
<text text-anchor="middle" x="1853" y="-99.8" font-family="Times,serif" font-size="14.00" fill="#000000">ListePrestationsComponent</text>
</g>
<!-- PrestationsModule -->
<g id="node13" class="node">
<title>PrestationsModule</title>
<polygon fill="#8dd3c7" stroke="#000000" points="1817.4832,-198 1814.4832,-202 1793.4832,-202 1790.4832,-198 1696.5168,-198 1696.5168,-162 1817.4832,-162 1817.4832,-198"/>
<text text-anchor="middle" x="1757" y="-175.8" font-family="Times,serif" font-size="14.00" fill="#000000">PrestationsModule</text>
</g>
<!-- ListePrestationsComponent&#45;&gt;PrestationsModule -->
<g id="edge11" class="edge">
<title>ListePrestationsComponent&#45;&gt;PrestationsModule</title>
<path fill="none" stroke="#000000" d="M1792.5561,-122.0109C1792.5561,-122.0109 1792.5561,-151.855 1792.5561,-151.855"/>
<polygon fill="#000000" stroke="#000000" points="1789.0562,-151.8549 1792.5561,-161.855 1796.0562,-151.855 1789.0562,-151.8549"/>
</g>
<!-- PrestationsRoutingModule -->
<g id="node14" class="node">
<title>PrestationsRoutingModule</title>
<polygon fill="#8dd3c7" stroke="#000000" points="1744.101,-122 1741.101,-126 1720.101,-126 1717.101,-122 1577.899,-122 1577.899,-86 1744.101,-86 1744.101,-122"/>
<text text-anchor="middle" x="1661" y="-99.8" font-family="Times,serif" font-size="14.00" fill="#000000">PrestationsRoutingModule</text>
</g>
<!-- PrestationsRoutingModule&#45;&gt;PrestationsModule -->
<g id="edge12" class="edge">
<title>PrestationsRoutingModule&#45;&gt;PrestationsModule</title>
<path fill="none" stroke="#000000" d="M1720.2795,-122.0109C1720.2795,-122.0109 1720.2795,-151.855 1720.2795,-151.855"/>
<polygon fill="#000000" stroke="#000000" points="1716.7795,-151.8549 1720.2795,-161.855 1723.7795,-151.855 1716.7795,-151.8549"/>
</g>
<!-- FooterComponent -->
<g id="node15" class="node">
<title>FooterComponent</title>
<polygon fill="#ffffb3" stroke="#000000" points="803.8809,-122 686.1191,-122 686.1191,-86 803.8809,-86 803.8809,-122"/>
<text text-anchor="middle" x="745" y="-99.8" font-family="Times,serif" font-size="14.00" fill="#000000">FooterComponent</text>
</g>
<!-- FooterComponent&#45;&gt;UserInterfaceModule -->
<g id="edge13" class="edge">
<title>FooterComponent&#45;&gt;UserInterfaceModule</title>
<path fill="none" stroke="#000000" d="M745,-122.0109C745,-122.0109 745,-151.855 745,-151.855"/>
<polygon fill="#000000" stroke="#000000" points="741.5001,-151.8549 745,-161.855 748.5001,-151.855 741.5001,-151.8549"/>
</g>
<!-- HeaderComponent -->
<g id="node16" class="node">
<title>HeaderComponent</title>
<polygon fill="#ffffb3" stroke="#000000" points="667.7437,-122 546.2563,-122 546.2563,-86 667.7437,-86 667.7437,-122"/>
<text text-anchor="middle" x="607" y="-99.8" font-family="Times,serif" font-size="14.00" fill="#000000">HeaderComponent</text>
</g>
<!-- HeaderComponent&#45;&gt;UserInterfaceModule -->
<g id="edge14" class="edge">
<title>HeaderComponent&#45;&gt;UserInterfaceModule</title>
<path fill="none" stroke="#000000" d="M667.9197,-104C676.0251,-104 681.603,-104 681.603,-104 681.603,-104 681.603,-151.9891 681.603,-151.9891"/>
<polygon fill="#000000" stroke="#000000" points="678.1031,-151.989 681.603,-161.9891 685.1031,-151.9891 678.1031,-151.989"/>
</g>
<!-- NavigationComponent -->
<g id="node17" class="node">
<title>NavigationComponent</title>
<polygon fill="#ffffb3" stroke="#000000" points="527.5407,-122 384.4593,-122 384.4593,-86 527.5407,-86 527.5407,-122"/>
<text text-anchor="middle" x="456" y="-99.8" font-family="Times,serif" font-size="14.00" fill="#000000">NavigationComponent</text>
</g>
<!-- NavigationComponent&#45;&gt;UserInterfaceModule -->
<g id="edge15" class="edge">
<title>NavigationComponent&#45;&gt;UserInterfaceModule</title>
<path fill="none" stroke="#000000" d="M456,-122.308C456,-142.1455 456,-171 456,-171 456,-171 667.2423,-171 667.2423,-171"/>
<polygon fill="#000000" stroke="#000000" points="667.2424,-174.5001 677.2423,-171 667.2423,-167.5001 667.2424,-174.5001"/>
</g>
<!-- UserInterfaceComponent -->
<g id="node18" class="node">
<title>UserInterfaceComponent</title>
<polygon fill="#ffffb3" stroke="#000000" points="365.9904,-122 208.0096,-122 208.0096,-86 365.9904,-86 365.9904,-122"/>
<text text-anchor="middle" x="287" y="-99.8" font-family="Times,serif" font-size="14.00" fill="#000000">UserInterfaceComponent</text>
</g>
<!-- UserInterfaceComponent&#45;&gt;UserInterfaceModule -->
<g id="edge16" class="edge">
<title>UserInterfaceComponent&#45;&gt;UserInterfaceModule</title>
<path fill="none" stroke="#000000" d="M287,-122.0109C287,-144.4852 287,-180 287,-180 287,-180 666.9273,-180 666.9273,-180"/>
<polygon fill="#000000" stroke="#000000" points="666.9274,-183.5001 676.9273,-180 666.9273,-176.5001 666.9274,-183.5001"/>
</g>
</g>
</svg>
